<mxfile host="app.diagrams.net" modified="2023-05-10T10:24:59.967Z" agent="Mozilla/5.0 (Windows NT 10.0; Win64; x64) AppleWebKit/537.36 (KHTML, like Gecko) Chrome/113.0.0.0 Safari/537.36" etag="_1pztvpgRQkqEwU3Ilb2" version="21.2.9" type="google">
  <diagram name="PÃ¡gina-1" id="ppIcbStx4OlH4JVar-Bz">
    <mxGraphModel grid="1" page="1" gridSize="10" guides="1" tooltips="1" connect="1" arrows="1" fold="1" pageScale="1" pageWidth="827" pageHeight="1169" math="0" shadow="0">
      <root>
        <mxCell id="0" />
        <mxCell id="1" parent="0" />
        <mxCell id="mNVl124heF_xmfoK7SFT-138" style="edgeStyle=orthogonalEdgeStyle;rounded=0;orthogonalLoop=1;jettySize=auto;html=1;exitX=1;exitY=0.5;exitDx=0;exitDy=0;entryX=0;entryY=0.5;entryDx=0;entryDy=0;" edge="1" parent="1" source="mNVl124heF_xmfoK7SFT-4" target="mNVl124heF_xmfoK7SFT-5">
          <mxGeometry relative="1" as="geometry" />
        </mxCell>
        <mxCell id="mNVl124heF_xmfoK7SFT-4" value="Not found in DB" style="ellipse;whiteSpace=wrap;html=1;" vertex="1" parent="1">
          <mxGeometry x="220" y="61" width="120" height="80" as="geometry" />
        </mxCell>
        <mxCell id="mNVl124heF_xmfoK7SFT-86" style="edgeStyle=orthogonalEdgeStyle;rounded=0;orthogonalLoop=1;jettySize=auto;html=1;exitX=0.5;exitY=0;exitDx=0;exitDy=0;entryX=0.5;entryY=1;entryDx=0;entryDy=0;" edge="1" parent="1" source="mNVl124heF_xmfoK7SFT-5" target="mNVl124heF_xmfoK7SFT-85">
          <mxGeometry relative="1" as="geometry" />
        </mxCell>
        <mxCell id="mNVl124heF_xmfoK7SFT-87" style="edgeStyle=orthogonalEdgeStyle;rounded=0;orthogonalLoop=1;jettySize=auto;html=1;exitX=0.5;exitY=1;exitDx=0;exitDy=0;entryX=0.5;entryY=0;entryDx=0;entryDy=0;" edge="1" parent="1" source="mNVl124heF_xmfoK7SFT-5" target="mNVl124heF_xmfoK7SFT-84">
          <mxGeometry relative="1" as="geometry" />
        </mxCell>
        <mxCell id="mNVl124heF_xmfoK7SFT-5" value="Contains&lt;br&gt;keywords" style="rhombus;whiteSpace=wrap;html=1;" vertex="1" parent="1">
          <mxGeometry x="380" y="61" width="80" height="80" as="geometry" />
        </mxCell>
        <mxCell id="mNVl124heF_xmfoK7SFT-44" style="edgeStyle=none;rounded=0;orthogonalLoop=1;jettySize=auto;html=1;exitX=0.5;exitY=0;exitDx=0;exitDy=0;entryX=0.5;entryY=1;entryDx=0;entryDy=0;" edge="1" parent="1" source="mNVl124heF_xmfoK7SFT-46" target="mNVl124heF_xmfoK7SFT-50">
          <mxGeometry relative="1" as="geometry" />
        </mxCell>
        <mxCell id="mNVl124heF_xmfoK7SFT-45" style="edgeStyle=none;rounded=0;orthogonalLoop=1;jettySize=auto;html=1;exitX=0.5;exitY=1;exitDx=0;exitDy=0;entryX=0.5;entryY=0;entryDx=0;entryDy=0;" edge="1" parent="1" source="mNVl124heF_xmfoK7SFT-46" target="mNVl124heF_xmfoK7SFT-48">
          <mxGeometry relative="1" as="geometry" />
        </mxCell>
        <mxCell id="mNVl124heF_xmfoK7SFT-46" value="AI model" style="rhombus;whiteSpace=wrap;html=1;" vertex="1" parent="1">
          <mxGeometry x="521" y="-59" width="80" height="80" as="geometry" />
        </mxCell>
        <mxCell id="mNVl124heF_xmfoK7SFT-98" style="edgeStyle=orthogonalEdgeStyle;rounded=0;orthogonalLoop=1;jettySize=auto;html=1;exitX=1;exitY=0.5;exitDx=0;exitDy=0;entryX=0;entryY=0.5;entryDx=0;entryDy=0;" edge="1" parent="1" source="mNVl124heF_xmfoK7SFT-48" target="mNVl124heF_xmfoK7SFT-93">
          <mxGeometry relative="1" as="geometry" />
        </mxCell>
        <mxCell id="mNVl124heF_xmfoK7SFT-48" value="Right page" style="ellipse;whiteSpace=wrap;html=1;" vertex="1" parent="1">
          <mxGeometry x="501" y="61" width="120" height="80" as="geometry" />
        </mxCell>
        <mxCell id="mNVl124heF_xmfoK7SFT-102" style="edgeStyle=orthogonalEdgeStyle;rounded=0;orthogonalLoop=1;jettySize=auto;html=1;exitX=1;exitY=0.5;exitDx=0;exitDy=0;entryX=0;entryY=0.5;entryDx=0;entryDy=0;" edge="1" parent="1" source="mNVl124heF_xmfoK7SFT-50" target="mNVl124heF_xmfoK7SFT-54">
          <mxGeometry relative="1" as="geometry" />
        </mxCell>
        <mxCell id="mNVl124heF_xmfoK7SFT-50" value="Wrong page" style="ellipse;whiteSpace=wrap;html=1;" vertex="1" parent="1">
          <mxGeometry x="501" y="-180" width="120" height="80" as="geometry" />
        </mxCell>
        <mxCell id="mNVl124heF_xmfoK7SFT-51" style="edgeStyle=none;rounded=0;orthogonalLoop=1;jettySize=auto;html=1;exitX=1;exitY=0.5;exitDx=0;exitDy=0;entryX=0;entryY=0.5;entryDx=0;entryDy=0;" edge="1" parent="1" source="mNVl124heF_xmfoK7SFT-52" target="mNVl124heF_xmfoK7SFT-57">
          <mxGeometry relative="1" as="geometry" />
        </mxCell>
        <mxCell id="mNVl124heF_xmfoK7SFT-52" value="Suggestion&lt;br&gt;(found by similarity)" style="rounded=1;whiteSpace=wrap;html=1;" vertex="1" parent="1">
          <mxGeometry x="801" y="71" width="120" height="60" as="geometry" />
        </mxCell>
        <mxCell id="mNVl124heF_xmfoK7SFT-53" style="edgeStyle=none;rounded=0;orthogonalLoop=1;jettySize=auto;html=1;exitX=1;exitY=0.5;exitDx=0;exitDy=0;entryX=0;entryY=0.5;entryDx=0;entryDy=0;" edge="1" parent="1" source="mNVl124heF_xmfoK7SFT-54" target="mNVl124heF_xmfoK7SFT-65">
          <mxGeometry relative="1" as="geometry" />
        </mxCell>
        <mxCell id="mNVl124heF_xmfoK7SFT-54" value="Suggestion&lt;br&gt;(other menu)" style="rounded=1;whiteSpace=wrap;html=1;" vertex="1" parent="1">
          <mxGeometry x="662" y="-170" width="120" height="60" as="geometry" />
        </mxCell>
        <mxCell id="mNVl124heF_xmfoK7SFT-55" style="edgeStyle=none;rounded=0;orthogonalLoop=1;jettySize=auto;html=1;exitX=0.5;exitY=0;exitDx=0;exitDy=0;entryX=0.5;entryY=1;entryDx=0;entryDy=0;" edge="1" parent="1" source="mNVl124heF_xmfoK7SFT-57" target="mNVl124heF_xmfoK7SFT-61">
          <mxGeometry relative="1" as="geometry" />
        </mxCell>
        <mxCell id="mNVl124heF_xmfoK7SFT-56" style="edgeStyle=none;rounded=0;orthogonalLoop=1;jettySize=auto;html=1;exitX=0.5;exitY=1;exitDx=0;exitDy=0;entryX=0.5;entryY=0;entryDx=0;entryDy=0;" edge="1" parent="1" source="mNVl124heF_xmfoK7SFT-57" target="mNVl124heF_xmfoK7SFT-59">
          <mxGeometry relative="1" as="geometry" />
        </mxCell>
        <mxCell id="mNVl124heF_xmfoK7SFT-57" value="User" style="rhombus;whiteSpace=wrap;html=1;" vertex="1" parent="1">
          <mxGeometry x="960" y="61" width="80" height="80" as="geometry" />
        </mxCell>
        <mxCell id="mNVl124heF_xmfoK7SFT-58" style="edgeStyle=none;rounded=0;orthogonalLoop=1;jettySize=auto;html=1;exitX=1;exitY=0.5;exitDx=0;exitDy=0;entryX=0.5;entryY=1;entryDx=0;entryDy=0;" edge="1" parent="1" source="mNVl124heF_xmfoK7SFT-59" target="mNVl124heF_xmfoK7SFT-62">
          <mxGeometry relative="1" as="geometry">
            <Array as="points">
              <mxPoint x="1599" y="221" />
            </Array>
          </mxGeometry>
        </mxCell>
        <mxCell id="mNVl124heF_xmfoK7SFT-59" value="Agrees" style="ellipse;whiteSpace=wrap;html=1;" vertex="1" parent="1">
          <mxGeometry x="940" y="181" width="120" height="80" as="geometry" />
        </mxCell>
        <mxCell id="mNVl124heF_xmfoK7SFT-104" style="edgeStyle=orthogonalEdgeStyle;rounded=0;orthogonalLoop=1;jettySize=auto;html=1;exitX=1;exitY=0.5;exitDx=0;exitDy=0;entryX=0;entryY=0.5;entryDx=0;entryDy=0;" edge="1" parent="1" source="mNVl124heF_xmfoK7SFT-61" target="mNVl124heF_xmfoK7SFT-103">
          <mxGeometry relative="1" as="geometry" />
        </mxCell>
        <mxCell id="mNVl124heF_xmfoK7SFT-61" value="Not agrees" style="ellipse;whiteSpace=wrap;html=1;" vertex="1" parent="1">
          <mxGeometry x="940" y="-59" width="120" height="80" as="geometry" />
        </mxCell>
        <mxCell id="mNVl124heF_xmfoK7SFT-62" value="Found" style="rounded=1;whiteSpace=wrap;html=1;fillColor=#CCFFCC;shadow=1;" vertex="1" parent="1">
          <mxGeometry x="1539" y="71" width="120" height="60" as="geometry" />
        </mxCell>
        <mxCell id="mNVl124heF_xmfoK7SFT-63" style="edgeStyle=none;rounded=0;orthogonalLoop=1;jettySize=auto;html=1;exitX=0.5;exitY=0;exitDx=0;exitDy=0;entryX=0.5;entryY=1;entryDx=0;entryDy=0;" edge="1" parent="1" source="mNVl124heF_xmfoK7SFT-65" target="mNVl124heF_xmfoK7SFT-67">
          <mxGeometry relative="1" as="geometry" />
        </mxCell>
        <mxCell id="mNVl124heF_xmfoK7SFT-64" style="edgeStyle=none;rounded=0;orthogonalLoop=1;jettySize=auto;html=1;exitX=0.5;exitY=1;exitDx=0;exitDy=0;entryX=0.5;entryY=0;entryDx=0;entryDy=0;" edge="1" parent="1" source="mNVl124heF_xmfoK7SFT-65" target="mNVl124heF_xmfoK7SFT-69">
          <mxGeometry relative="1" as="geometry" />
        </mxCell>
        <mxCell id="mNVl124heF_xmfoK7SFT-65" value="User" style="rhombus;whiteSpace=wrap;html=1;" vertex="1" parent="1">
          <mxGeometry x="821" y="-180" width="80" height="80" as="geometry" />
        </mxCell>
        <mxCell id="mNVl124heF_xmfoK7SFT-66" style="edgeStyle=none;rounded=0;orthogonalLoop=1;jettySize=auto;html=1;exitX=1;exitY=0.5;exitDx=0;exitDy=0;entryX=0;entryY=0.5;entryDx=0;entryDy=0;" edge="1" parent="1" source="mNVl124heF_xmfoK7SFT-67" target="mNVl124heF_xmfoK7SFT-70">
          <mxGeometry relative="1" as="geometry" />
        </mxCell>
        <mxCell id="mNVl124heF_xmfoK7SFT-67" value="Agrees" style="ellipse;whiteSpace=wrap;html=1;" vertex="1" parent="1">
          <mxGeometry x="801" y="-300" width="120" height="80" as="geometry" />
        </mxCell>
        <mxCell id="mNVl124heF_xmfoK7SFT-95" style="edgeStyle=orthogonalEdgeStyle;rounded=0;orthogonalLoop=1;jettySize=auto;html=1;exitX=0;exitY=0.5;exitDx=0;exitDy=0;entryX=0.5;entryY=0;entryDx=0;entryDy=0;" edge="1" parent="1" source="mNVl124heF_xmfoK7SFT-69" target="mNVl124heF_xmfoK7SFT-93">
          <mxGeometry relative="1" as="geometry">
            <mxPoint x="730" y="-50" as="targetPoint" />
          </mxGeometry>
        </mxCell>
        <mxCell id="mNVl124heF_xmfoK7SFT-69" value="Not agrees" style="ellipse;whiteSpace=wrap;html=1;" vertex="1" parent="1">
          <mxGeometry x="801" y="-60" width="120" height="80" as="geometry" />
        </mxCell>
        <mxCell id="mNVl124heF_xmfoK7SFT-70" value="Navigates to&lt;br&gt;right page" style="rounded=1;whiteSpace=wrap;html=1;fillColor=#E6FFCC;shadow=1;" vertex="1" parent="1">
          <mxGeometry x="961" y="-290" width="120" height="60" as="geometry" />
        </mxCell>
        <mxCell id="mNVl124heF_xmfoK7SFT-133" style="edgeStyle=orthogonalEdgeStyle;rounded=0;orthogonalLoop=1;jettySize=auto;html=1;exitX=1;exitY=0.5;exitDx=0;exitDy=0;entryX=0;entryY=0.5;entryDx=0;entryDy=0;" edge="1" parent="1" source="mNVl124heF_xmfoK7SFT-72" target="mNVl124heF_xmfoK7SFT-119">
          <mxGeometry relative="1" as="geometry" />
        </mxCell>
        <mxCell id="mNVl124heF_xmfoK7SFT-72" value="Suggestion&lt;br&gt;(found online)" style="rounded=1;whiteSpace=wrap;html=1;" vertex="1" parent="1">
          <mxGeometry x="1240" y="-49" width="120" height="60" as="geometry" />
        </mxCell>
        <mxCell id="mNVl124heF_xmfoK7SFT-73" style="edgeStyle=none;rounded=0;orthogonalLoop=1;jettySize=auto;html=1;exitX=0.5;exitY=0;exitDx=0;exitDy=0;entryX=0.5;entryY=1;entryDx=0;entryDy=0;" edge="1" parent="1">
          <mxGeometry relative="1" as="geometry">
            <mxPoint x="1439" y="1" as="sourcePoint" />
            <mxPoint x="1439" y="-39" as="targetPoint" />
          </mxGeometry>
        </mxCell>
        <mxCell id="mNVl124heF_xmfoK7SFT-74" style="edgeStyle=none;rounded=0;orthogonalLoop=1;jettySize=auto;html=1;exitX=0.5;exitY=1;exitDx=0;exitDy=0;entryX=0.5;entryY=0;entryDx=0;entryDy=0;" edge="1" parent="1" target="mNVl124heF_xmfoK7SFT-80">
          <mxGeometry relative="1" as="geometry">
            <mxPoint x="1439" y="81" as="sourcePoint" />
          </mxGeometry>
        </mxCell>
        <mxCell id="mNVl124heF_xmfoK7SFT-76" value="Not found" style="rounded=1;whiteSpace=wrap;html=1;fillColor=#FFCCCC;shadow=1;" vertex="1" parent="1">
          <mxGeometry x="1539" y="-169" width="120" height="60" as="geometry" />
        </mxCell>
        <mxCell id="mNVl124heF_xmfoK7SFT-79" style="edgeStyle=none;rounded=0;orthogonalLoop=1;jettySize=auto;html=1;exitX=1;exitY=0.5;exitDx=0;exitDy=0;entryX=0;entryY=0.5;entryDx=0;entryDy=0;" edge="1" parent="1" source="mNVl124heF_xmfoK7SFT-80" target="mNVl124heF_xmfoK7SFT-62">
          <mxGeometry relative="1" as="geometry" />
        </mxCell>
        <mxCell id="mNVl124heF_xmfoK7SFT-80" value="Agrees" style="ellipse;whiteSpace=wrap;html=1;" vertex="1" parent="1">
          <mxGeometry x="1379" y="61" width="120" height="80" as="geometry" />
        </mxCell>
        <mxCell id="mNVl124heF_xmfoK7SFT-137" style="edgeStyle=orthogonalEdgeStyle;rounded=0;orthogonalLoop=1;jettySize=auto;html=1;exitX=1;exitY=0.5;exitDx=0;exitDy=0;entryX=0;entryY=0.5;entryDx=0;entryDy=0;" edge="1" parent="1" source="mNVl124heF_xmfoK7SFT-84" target="mNVl124heF_xmfoK7SFT-89">
          <mxGeometry relative="1" as="geometry" />
        </mxCell>
        <mxCell id="mNVl124heF_xmfoK7SFT-84" value="Seems like a&lt;br&gt;chemistry problem&lt;br&gt;or exercise" style="ellipse;whiteSpace=wrap;html=1;" vertex="1" parent="1">
          <mxGeometry x="360" y="181" width="120" height="80" as="geometry" />
        </mxCell>
        <mxCell id="mNVl124heF_xmfoK7SFT-88" style="edgeStyle=orthogonalEdgeStyle;rounded=0;orthogonalLoop=1;jettySize=auto;html=1;exitX=1;exitY=0.5;exitDx=0;exitDy=0;entryX=0;entryY=0.5;entryDx=0;entryDy=0;" edge="1" parent="1" source="mNVl124heF_xmfoK7SFT-85" target="mNVl124heF_xmfoK7SFT-46">
          <mxGeometry relative="1" as="geometry" />
        </mxCell>
        <mxCell id="mNVl124heF_xmfoK7SFT-85" value="No reason to&lt;br&gt;suspect" style="ellipse;whiteSpace=wrap;html=1;" vertex="1" parent="1">
          <mxGeometry x="360" y="-59" width="120" height="80" as="geometry" />
        </mxCell>
        <mxCell id="mNVl124heF_xmfoK7SFT-89" value="&quot;It&#39;s an exercise&quot;&lt;br&gt;suggestion" style="rounded=1;whiteSpace=wrap;html=1;fillColor=#FFFFCC;shadow=1;" vertex="1" parent="1">
          <mxGeometry x="520" y="191" width="120" height="60" as="geometry" />
        </mxCell>
        <mxCell id="mNVl124heF_xmfoK7SFT-99" style="edgeStyle=orthogonalEdgeStyle;rounded=0;orthogonalLoop=1;jettySize=auto;html=1;exitX=1;exitY=0.5;exitDx=0;exitDy=0;entryX=0;entryY=0.5;entryDx=0;entryDy=0;" edge="1" parent="1" source="mNVl124heF_xmfoK7SFT-93" target="mNVl124heF_xmfoK7SFT-52">
          <mxGeometry relative="1" as="geometry" />
        </mxCell>
        <mxCell id="mNVl124heF_xmfoK7SFT-93" value="Smart&lt;br&gt;search" style="shape=parallelogram;perimeter=parallelogramPerimeter;whiteSpace=wrap;html=1;fixedSize=1;" vertex="1" parent="1">
          <mxGeometry x="650" y="71" width="120" height="60" as="geometry" />
        </mxCell>
        <mxCell id="mNVl124heF_xmfoK7SFT-110" style="edgeStyle=orthogonalEdgeStyle;rounded=0;orthogonalLoop=1;jettySize=auto;html=1;exitX=1;exitY=0.5;exitDx=0;exitDy=0;entryX=0;entryY=0.5;entryDx=0;entryDy=0;" edge="1" parent="1" source="mNVl124heF_xmfoK7SFT-103" target="mNVl124heF_xmfoK7SFT-72">
          <mxGeometry relative="1" as="geometry" />
        </mxCell>
        <mxCell id="mNVl124heF_xmfoK7SFT-103" value="Enriched&lt;br&gt;search" style="shape=parallelogram;perimeter=parallelogramPerimeter;whiteSpace=wrap;html=1;fixedSize=1;" vertex="1" parent="1">
          <mxGeometry x="1090" y="-49" width="120" height="60" as="geometry" />
        </mxCell>
        <mxCell id="mNVl124heF_xmfoK7SFT-134" style="edgeStyle=orthogonalEdgeStyle;rounded=0;orthogonalLoop=1;jettySize=auto;html=1;exitX=0.5;exitY=0;exitDx=0;exitDy=0;entryX=0.5;entryY=1;entryDx=0;entryDy=0;" edge="1" parent="1" source="mNVl124heF_xmfoK7SFT-119" target="mNVl124heF_xmfoK7SFT-120">
          <mxGeometry relative="1" as="geometry" />
        </mxCell>
        <mxCell id="mNVl124heF_xmfoK7SFT-136" style="edgeStyle=orthogonalEdgeStyle;rounded=0;orthogonalLoop=1;jettySize=auto;html=1;exitX=0.5;exitY=1;exitDx=0;exitDy=0;entryX=0.5;entryY=0;entryDx=0;entryDy=0;" edge="1" parent="1" source="mNVl124heF_xmfoK7SFT-119" target="mNVl124heF_xmfoK7SFT-80">
          <mxGeometry relative="1" as="geometry" />
        </mxCell>
        <mxCell id="mNVl124heF_xmfoK7SFT-119" value="User" style="rhombus;whiteSpace=wrap;html=1;" vertex="1" parent="1">
          <mxGeometry x="1399" y="-59" width="80" height="80" as="geometry" />
        </mxCell>
        <mxCell id="mNVl124heF_xmfoK7SFT-135" style="edgeStyle=orthogonalEdgeStyle;rounded=0;orthogonalLoop=1;jettySize=auto;html=1;exitX=1;exitY=0.5;exitDx=0;exitDy=0;entryX=0;entryY=0.5;entryDx=0;entryDy=0;" edge="1" parent="1" source="mNVl124heF_xmfoK7SFT-120" target="mNVl124heF_xmfoK7SFT-76">
          <mxGeometry relative="1" as="geometry" />
        </mxCell>
        <mxCell id="mNVl124heF_xmfoK7SFT-120" value="Not agrees" style="ellipse;whiteSpace=wrap;html=1;" vertex="1" parent="1">
          <mxGeometry x="1379" y="-179" width="120" height="80" as="geometry" />
        </mxCell>
      </root>
    </mxGraphModel>
  </diagram>
</mxfile>
